<svg width="44" height="44" viewBox="0 0 44 44" fill="none" xmlns="http://www.w3.org/2000/svg">
<rect x="0.5" y="0.5" width="43" height="43" rx="21.5" stroke="#FFDD00"/>
<path d="M25.4024 31V24.0344H27.7347L28.0838 21.3265H25.4024V19.5976C25.4024 18.8136 25.62 18.2793 26.7443 18.2793L28.1783 18.2787V15.8568C27.9302 15.8238 27.0791 15.7501 26.0888 15.7501C24.0213 15.7501 22.606 17.012 22.606 19.3295V21.3265H20.2677V24.0344H22.606V31H14C13.4477 31 13 30.5523 13 30V14C13 13.4477 13.4477 13 14 13H30C30.5523 13 31 13.4477 31 14V30C31 30.5523 30.5523 31 30 31H25.4024Z" fill="#FAFCFB"/>
</svg>
