<svg width="44" height="44" viewBox="0 0 44 44" fill="none" xmlns="http://www.w3.org/2000/svg">
<rect x="0.5" y="0.5" width="43" height="43" rx="21.5" stroke="#FFDD00"/>
<path d="M22.9247 13C23.9376 13.0017 24.4509 13.007 24.8945 13.0202L25.0692 13.0259C25.2709 13.0331 25.47 13.0421 25.7101 13.0534C26.6678 13.0976 27.3211 13.2491 27.8949 13.4719C28.4881 13.7006 28.9892 14.0097 29.4894 14.5099C29.9889 15.0102 30.298 15.5127 30.5275 16.1045C30.7494 16.6775 30.901 17.3315 30.946 18.2893C30.9567 18.5293 30.9653 18.7284 30.9725 18.9302L30.9781 19.1049C30.9913 19.5484 30.9973 20.0618 30.9992 21.0747L30.9999 21.7458C31 21.8277 31 21.9123 31 21.9996L30.9999 22.2535L30.9994 22.9247C30.9977 23.9376 30.9923 24.451 30.9791 24.8944L30.9734 25.0691C30.9662 25.271 30.9572 25.4701 30.946 25.71C30.9017 26.6678 30.7494 27.3211 30.5275 27.8948C30.2987 28.4881 29.9889 28.9892 29.4894 29.4894C28.9892 29.989 28.4859 30.2979 27.8949 30.5274C27.3211 30.7495 26.6678 30.901 25.7101 30.946C25.47 30.9567 25.2709 30.9654 25.0692 30.9724L24.8945 30.9781C24.4509 30.9913 23.9376 30.9973 22.9247 30.9992L22.2536 31C22.1716 31 22.087 31 21.9997 31H21.7458L21.0746 30.9993C20.0617 30.9977 19.5484 30.9923 19.1049 30.9791L18.9302 30.9734C18.7284 30.9662 18.5293 30.9572 18.2893 30.946C17.3315 30.9018 16.679 30.7495 16.1045 30.5274C15.5119 30.2987 15.0102 29.989 14.5099 29.4894C14.0097 28.9892 13.7014 28.4859 13.4719 27.8948C13.2491 27.3211 13.0984 26.6678 13.0534 25.71C13.0427 25.4701 13.034 25.271 13.0269 25.0691L13.0212 24.8944C13.0081 24.451 13.0021 23.9376 13.0001 22.9247L13 21.0747C13.0017 20.0618 13.007 19.5484 13.0202 19.1049L13.0259 18.9302C13.0331 18.7284 13.0421 18.5293 13.0534 18.2893C13.0976 17.3308 13.2491 16.6782 13.4719 16.1045C13.7006 15.512 14.0097 15.0102 14.5099 14.5099C15.0102 14.0097 15.5127 13.7014 16.1045 13.4719C16.6782 13.2491 17.3308 13.0984 18.2893 13.0534C18.5293 13.0427 18.7284 13.034 18.9302 13.0269L19.1049 13.0212C19.5484 13.0081 20.0617 13.0021 21.0746 13.0001L22.9247 13ZM21.9997 17.4995C19.513 17.4995 17.4995 19.5152 17.4995 21.9996C17.4995 24.4863 19.5152 26.4998 21.9997 26.4998C24.4864 26.4998 26.4998 24.4842 26.4998 21.9996C26.4998 19.513 24.4841 17.4995 21.9997 17.4995ZM21.9997 19.2996C23.491 19.2996 24.6998 20.508 24.6998 21.9996C24.6998 23.4909 23.4913 24.6997 21.9997 24.6997C20.5084 24.6997 19.2996 23.4914 19.2996 21.9996C19.2996 20.5084 20.508 19.2996 21.9997 19.2996ZM26.7249 16.1495C26.1045 16.1495 25.5998 16.6534 25.5998 17.2738C25.5998 17.8941 26.1037 18.3988 26.7249 18.3988C27.3452 18.3988 27.8499 17.8949 27.8499 17.2738C27.8499 16.6534 27.3443 16.1487 26.7249 16.1495Z" fill="#FAFCFB"/>
</svg>
