<svg width="20" height="20" viewBox="0 0 20 20" fill="none" xmlns="http://www.w3.org/2000/svg">
<g clip-path="url(#clip0_271_2168)">
<path d="M0 10.8809H5.47793C5.65692 14.1498 6.70808 17.1863 8.40268 19.7619C3.93829 19.0681 0.45078 15.4212 0 10.8809ZM0 8.88088C0.45078 4.34066 3.93829 0.69374 8.40268 0C6.70808 2.57554 5.65692 5.61209 5.47793 8.88088H0ZM19.9013 8.88088H14.4233C14.2443 5.61209 13.1932 2.57554 11.4986 0C15.963 0.69374 19.4505 4.34066 19.9013 8.88088ZM19.9013 10.8809C19.4505 15.4212 15.963 19.0681 11.4986 19.7619C13.1932 17.1863 14.2443 14.1498 14.4233 10.8809H19.9013ZM7.48136 10.8809H12.4199C12.2483 13.6638 11.3653 16.2542 9.95058 18.4725C8.53588 16.2542 7.65297 13.6638 7.48136 10.8809ZM7.48136 8.88088C7.65297 6.09807 8.53588 3.5077 9.95058 1.28939C11.3653 3.5077 12.2483 6.09807 12.4199 8.88088H7.48136Z" fill="#6E7B73"/>
</g>
<defs>
<clipPath id="clip0_271_2168">
<rect width="20" height="20" fill="white"/>
</clipPath>
</defs>
</svg>
