<svg width="142" height="160" viewBox="0 0 142 160" fill="none" xmlns="http://www.w3.org/2000/svg">
<g clip-path="url(#clip0_66_4498)">
<mask id="mask0_66_4498" style="mask-type:luminance" maskUnits="userSpaceOnUse" x="0" y="0" width="142" height="160">
<path d="M141.395 0H0V160H141.395V0Z" fill="white"/>
</mask>
<g mask="url(#mask0_66_4498)">
<path d="M141.163 17.8666C143.215 64.8379 132.197 117.078 70.6725 159.981C2.57655 112.634 -1.36659 54.605 0.253875 17.8666C44.1687 -5.96855 97.2482 -5.96855 141.163 17.8666Z" fill="#FFD632"/>
<path d="M130.81 46.3082C128.722 91.0393 106.089 127.617 70.5102 151.882C34.9318 127.617 12.3533 91.0214 10.2646 46.3082C47.8416 25.9318 93.2329 25.9318 130.81 46.3082Z" fill="#007330"/>
<path d="M123.716 50.4657C121.843 90.8241 102.614 126.129 70.5103 148.046C38.407 126.147 19.2314 90.8062 17.3588 50.4657C51.1547 33.6019 90.5502 33.6019 123.716 50.4657Z" fill="#FFDD00"/>
<path d="M25.2818 48.459V55.735H26.5782V52.4015H28.5228V51.5951H26.5782V49.2654H28.7389V48.459H25.2818Z" fill="#007330"/>
<path d="M29.7112 48.459V53.6023C29.7112 54.3729 29.7652 54.7493 29.9452 55.036C30.2693 55.5916 30.9176 55.8424 31.9438 55.8424C33.5824 55.8424 34.1584 55.3048 34.1584 53.7457V48.459H32.88V53.7457C32.88 54.6776 32.7 54.9105 31.9619 54.9105C31.2236 54.9105 30.9895 54.6597 30.9895 53.6023V48.459H29.7112Z" fill="#007330"/>
<path d="M34.8396 48.459V49.3012H36.352V55.735H37.6124V49.3012H39.0708V48.459H34.8396Z" fill="#007330"/>
<path d="M39.7603 48.4589V55.7528H41.4708C43.0013 55.7528 43.7396 55.1076 43.7396 53.7635C43.7396 52.7599 43.4154 52.3657 42.3891 52.0431C43.3074 51.7922 43.5955 51.38 43.5955 50.3406C43.5955 49.0682 42.9113 48.4409 41.5248 48.4409H39.7603V48.4589ZM40.9847 51.6489V49.2295C40.9847 49.2295 41.1467 49.2116 41.2367 49.2116C41.957 49.2116 42.3351 49.6238 42.3351 50.3943C42.3351 51.3083 42.011 51.6489 41.0748 51.6489H40.9847ZM40.9847 52.4374C42.011 52.4374 42.3891 52.7599 42.3891 53.656C42.3891 54.6237 42.101 54.8747 40.9847 54.9105V52.4374Z" fill="#007330"/>
<path d="M46.3679 48.459L44.2793 55.7528H45.5217L45.8998 54.337H47.8084L48.1684 55.7528H49.4468L47.3762 48.459H46.3679ZM47.6103 53.5485H46.0619L46.3139 52.6166C46.584 51.5055 46.7281 50.8245 46.8541 49.8568C46.9621 50.5915 47.1602 51.7206 47.3222 52.3836L47.6103 53.5485Z" fill="#007330"/>
<path d="M50.1832 48.459V55.735H53.6042V54.8926H51.4796V48.459H50.1832Z" fill="#007330"/>
<path d="M56.5767 48.3691C54.7942 48.3691 54.11 49.3548 54.11 51.9355C54.11 54.8387 54.7762 55.8423 56.6848 55.8423C58.4313 55.8423 59.1334 54.8387 59.1334 52.276C59.1334 49.3548 58.4853 48.3691 56.5767 48.3691ZM56.6488 49.2474C57.0269 49.2474 57.2969 49.3907 57.477 49.6775C57.675 50.0179 57.7831 50.896 57.7831 52.3835C57.7831 53.1004 57.7291 53.7455 57.6391 54.1398C57.5129 54.6953 57.1889 54.9463 56.6488 54.9463C55.7665 54.9463 55.4964 54.319 55.4964 52.2401C55.4964 50.8243 55.5505 50.2151 55.7124 49.8387C55.8745 49.4265 56.1626 49.2474 56.6488 49.2474Z" fill="#007330"/>
<path d="M59.314 48.459L61.1686 55.7528H62.195L64.0855 48.459H62.8791L62.2669 51.1471C62.2309 51.3443 62.2129 51.3801 62.0869 52.0252L62.0149 52.4015C61.9069 52.8854 61.9788 52.5808 61.8169 53.3334C61.7448 53.6919 61.7628 53.6202 61.7088 53.9428C61.5828 53.1722 61.6007 53.3693 61.3487 51.9894L61.2766 51.6489L61.2407 51.4876L61.2047 51.3263L61.1686 51.165L60.5925 48.4769H59.314V48.459Z" fill="#007330"/>
<path d="M64.4284 48.4586L66.427 52.6162V55.7525H67.7233V52.6162L69.3978 48.4586H68.0474L67.5073 50.1072C67.3992 50.4478 67.5073 50.161 67.2372 51.0213C67.2011 51.1825 67.1292 51.4335 67.0571 51.8277C66.9492 51.308 66.8771 51.1467 66.589 50.394C66.5349 50.2686 66.481 50.161 66.4449 50.0536L65.8148 48.4765H64.4284V48.4586ZM67.8314 46.4155L66.4809 47.4191L66.9492 47.8134L68.5156 46.989L67.8314 46.4155Z" fill="#007330"/>
<path d="M72.5483 48.459V55.735H73.8446V51.9714L75.6452 55.735H77.1037L75.051 51.9714L76.9416 48.459H75.6452L73.8446 51.9714V48.459H72.5483Z" fill="#007330"/>
<path d="M77.8925 48.459V55.735H81.3135V54.8926H79.1889V48.459H77.8925Z" fill="#007330"/>
<path d="M82.1064 48.459V53.6023C82.1064 54.3729 82.1605 54.7493 82.3405 55.036C82.6646 55.5916 83.3308 55.8424 84.3391 55.8424C85.9776 55.8424 86.5538 55.3048 86.5538 53.7457V48.459H85.2753V53.7457C85.2753 54.6776 85.0953 54.9105 84.3572 54.9105C83.6189 54.9105 83.3848 54.6597 83.3848 53.6023V48.459H82.1064Z" fill="#007330"/>
<path d="M87.9919 48.4589V55.7528H89.7024C91.2329 55.7528 91.9711 55.1076 91.9711 53.7635C91.9711 52.7599 91.647 52.3657 90.6208 52.0431C91.5389 51.7922 91.827 51.38 91.827 50.3406C91.827 49.0682 91.1429 48.4409 89.7565 48.4409H87.9919V48.4589ZM89.2163 51.6489V49.2295C89.2163 49.2295 89.3784 49.2116 89.4684 49.2116C90.1886 49.2116 90.5667 49.6238 90.5667 50.3943C90.5667 51.3083 90.2427 51.6489 89.3063 51.6489H89.2163ZM89.2163 52.4374C90.2427 52.4374 90.6208 52.7599 90.6208 53.656C90.6208 54.6237 90.3327 54.8747 89.2163 54.9105V52.4374Z" fill="#007330"/>
<path d="M96.1871 48.459V49.2833H97.1414V55.735H98.3837V48.459H96.1871Z" fill="#007330"/>
<path d="M102.401 55.7348L102.437 55.681L102.472 55.6093L102.508 55.5555C102.508 55.5555 102.671 55.3047 102.851 55.018C103.247 54.3907 103.103 54.6057 103.283 54.3369C104.129 52.8853 104.399 52.0789 104.399 50.8423C104.399 49.0681 103.805 48.3691 102.328 48.3691C100.852 48.3691 100.276 49.0681 100.276 50.7885C100.276 52.2939 100.798 52.9749 101.932 52.9749C102.328 52.9749 102.545 52.9032 102.923 52.6881C102.454 53.5664 102.382 53.6559 101.464 55.0537L101.212 55.4302C101.212 55.4302 101.176 55.5019 101.068 55.6451L101.014 55.7527H102.401V55.7348ZM102.328 49.2653C102.869 49.2653 103.139 49.7133 103.139 50.6452C103.139 51.6845 102.905 52.0968 102.328 52.0968C101.752 52.0968 101.5 51.6845 101.5 50.6452C101.5 49.7133 101.77 49.2653 102.328 49.2653Z" fill="#007330"/>
<path d="M107.798 48.3691C107.024 48.3691 106.394 48.6918 106.088 49.2653C105.764 49.8566 105.62 50.6809 105.62 52.0968C105.62 53.5126 105.746 54.319 106.088 54.9463C106.394 55.5198 107.024 55.8423 107.798 55.8423C108.573 55.8423 109.203 55.5198 109.509 54.9463C109.833 54.319 109.977 53.5305 109.977 52.1147C109.977 50.699 109.851 49.8925 109.509 49.2653C109.203 48.6918 108.573 48.3691 107.798 48.3691ZM107.78 49.2474C108.429 49.2474 108.645 49.9642 108.645 52.1147C108.645 54.2652 108.429 54.9821 107.78 54.9821C107.132 54.9821 106.898 54.2652 106.898 52.1147C106.916 49.9642 107.132 49.2474 107.78 49.2474Z" fill="#007330"/>
<path d="M114.207 51.7921C114.964 51.5412 115.252 51.1111 115.252 50.1613C115.252 48.9068 114.639 48.3691 113.253 48.3691C111.867 48.3691 111.254 48.9247 111.254 50.1613C111.254 51.0932 111.542 51.5412 112.317 51.7921C111.452 52.0251 111.182 52.4552 111.182 53.62C111.182 55.1434 111.831 55.8244 113.253 55.8244C114.675 55.8244 115.324 55.1434 115.324 53.62C115.324 52.4552 115.054 52.0251 114.207 51.7921ZM113.253 49.2115C113.703 49.2115 113.955 49.5699 113.955 50.2329C113.955 50.9498 113.703 51.362 113.253 51.362C112.803 51.362 112.551 50.9498 112.551 50.2329C112.533 49.5878 112.803 49.2115 113.253 49.2115ZM113.253 52.3297C113.811 52.3297 114.045 52.7419 114.045 53.7634C114.045 54.5878 113.793 54.982 113.253 54.982C112.713 54.982 112.461 54.5878 112.461 53.7634C112.443 52.724 112.677 52.3297 113.253 52.3297Z" fill="#007330"/>
<path d="M25.1563 57.2041C25.1563 57.2041 24.8502 111.218 70.5296 148.781C116.209 111.218 115.597 57.2041 115.597 57.2041H25.1563Z" fill="#007330"/>
<path d="M44.4762 67.1865L46.0246 71.38L50.5799 70.5736L47.5731 73.9786L50.5799 77.3657L46.0246 76.5235L44.4762 80.7528L42.9278 76.5235L38.3544 77.3657L41.3792 73.9786L38.3544 70.5736L42.9278 71.38L44.4762 67.1865Z" fill="#FFDD00"/>
<path d="M97.1048 67.1865L98.6533 71.38L103.209 70.5736L100.202 73.9786L103.209 77.3657L98.6533 76.5235L97.1048 80.7528L95.5564 76.5235L90.983 77.3657L94.0079 73.9786L90.983 70.5736L95.5564 71.38L97.1048 67.1865Z" fill="#FFDD00"/>
<path d="M73.8618 118.19V97.1686H84.0708C90.7867 97.1686 94.856 98.9248 94.856 98.9248C93.9377 93.6739 94.856 88.7993 94.856 88.7993C90.5347 90.6273 83.9808 90.7886 83.9808 90.7886H73.8618V74.2116C78.6692 73.9785 81.8381 75.3227 81.8381 75.3227C81.1719 70.8603 81.8381 66.7205 81.8381 66.7205C77.4448 68.0825 73.7897 67.8316 73.7897 67.8316C74.0418 65.2867 74.0418 61.4517 74.0418 61.4517C72.1332 61.6846 70.4768 61.6129 70.4768 61.6129C70.4768 61.6129 68.8203 61.6846 66.9117 61.4517C66.9117 61.4517 66.9117 65.2689 67.1638 67.8316C67.1638 67.8316 63.5088 68.0646 59.1155 66.7205C59.1155 66.7205 59.7817 70.8603 59.1155 75.3227C59.1155 75.3227 62.2664 73.9606 67.0919 74.2116V90.7886H56.9729C56.9729 90.7886 50.419 90.6273 46.0977 88.7993C46.0977 88.7993 47.016 93.656 46.0977 98.9248C46.0977 98.9248 50.1668 97.1686 56.8829 97.1686H67.0919V118.208C67.0919 118.208 67.5419 123.889 64.9671 125.412C62.3925 126.918 61.7082 126.864 60.718 127.831C59.7277 128.781 60.0518 130.574 60.718 131.363C61.3842 132.15 62.3744 133.352 62.3024 134.714C62.3024 134.714 63.5447 133.405 61.9783 131.452C60.6459 129.785 63.6348 127.491 65.0392 129.426C66.0476 130.825 65.2193 132.886 65.2193 132.886C65.2193 132.886 63.8149 135.269 66.2095 137.187C68.6222 139.104 68.3702 138.549 68.9464 139.732C68.9464 139.732 69.3425 138.925 67.866 137.492C66.3176 136.004 66.8217 133.494 67.74 132.474C68.6583 131.433 69.7206 131.308 70.8549 132.008C72.0613 132.742 71.5932 134.086 71.4311 134.964C71.2691 135.843 71.2691 136.631 71.5932 137.509C71.9172 138.387 72.5834 139.499 72.4213 140.861C72.4213 140.861 73.7718 140.09 72.9975 138.316C72.2233 136.542 72.4934 135.771 72.9975 135.054C73.5017 134.337 74.3299 133.548 74.1678 131.953C74.0058 130.358 75.2482 129.158 76.4185 129.247C77.5888 129.319 78.8312 130.52 78.5792 131.953C78.255 133.333 77.1747 133.817 77.1747 134.856C77.1747 135.896 76.7966 137.097 76.3645 137.329C76.3645 137.329 77.2468 136.936 78.165 135.25C79.0293 133.656 80.0376 133.298 80.0376 133.298C80.0376 133.298 81.352 131.953 81.1539 130.071C81.0098 128.728 79.4974 127.526 79.4974 127.526C79.4974 127.526 75.9324 126.254 74.9242 124.57C73.9518 122.903 73.8618 118.19 73.8618 118.19Z" fill="#FFDD00"/>
<path d="M28.1651 34.7669L26.6527 19.0322L21.6471 21.2543L19.9726 28.2616C19.6126 29.7131 19.4866 30.5734 19.3425 31.8816H19.3245C19.1804 30.6451 19.0183 29.8565 18.7843 29.0322L17.1818 23.2436L11.9963 25.5375L10.3759 42.6522L14.6251 40.7705L14.9492 34.0859C15.0032 33.0286 15.0213 32.1326 15.0213 30.6629H15.0392C15.1653 32.0429 15.3453 32.8852 15.5794 33.6916L17.3259 39.5519L20.9269 37.9569L22.9436 30.2507C23.1956 29.2652 23.3217 28.387 23.5017 26.9174H23.5198C23.5198 28.3154 23.5737 29.1397 23.6457 30.1433L24.0419 36.5769L28.1651 34.7669ZM131.119 42.688L126.132 24.0859L121.738 22.1326L116.445 36.1827L120.892 38.154L121.792 35.3942L125.7 37.1146L126.528 40.6629L131.119 42.688ZM124.817 33.5303L122.693 32.5806L123.359 30.1971C123.647 29.2114 123.755 28.369 123.809 27.7777C123.827 28.4049 123.953 29.4085 124.115 30.2149L124.817 33.5303ZM115.203 35.7167V19.3189L111.187 18.1182V23.2078C111.187 24.2831 111.205 25.9138 111.331 26.9174C110.935 25.6988 110.431 24.3906 109.963 23.387L106.956 16.8817L102.887 15.6809V32.0788L106.902 33.2795V28.6738C106.902 26.6486 106.758 25.1074 106.668 24.4444C107.028 25.6092 107.514 26.9353 107.946 27.9031L110.845 34.4623L115.203 35.7167ZM100.582 31.4515V15.0536L96.261 14.2114V30.6091L100.582 31.4515ZM94.4064 26.5769L88.8068 25.7526V12.8314L84.5215 12.2938V28.6917L94.4245 30.1254V26.5769H94.4064ZM82.5409 28.4945V12.0967L78.2197 11.9533V28.3511L82.5409 28.4945ZM76.1131 24.6235H69.6492L76.023 14.9103V11.7382H71.7198L74.2405 9.9282L73.1782 8.13609L70.6035 9.46225L67.9387 8.11816L66.9664 9.89236L69.5952 11.7382H65.0399V15.1432H70.9995L64.5356 24.9103V28.1182H76.0951V24.6235H76.1131ZM57.7297 28.4945L52.5802 20.4479L56.9014 12.24L51.662 13.1002L48.0248 21.2723L52.1661 29.4085L57.7297 28.4945ZM47.9708 30.1074V13.6916L43.7397 14.3906V30.7884L47.9708 30.0895V30.1074ZM39.4904 13.3153L38.428 11.8099L35.8533 13.835L33.1885 13.2078L32.2162 15.2508L34.899 16.3977C31.8742 17.6522 29.7856 20.2149 29.7856 23.0823C29.7856 25.9497 31.424 26.792 33.8007 26.7562H35.7453C36.8796 26.7203 37.4017 26.8995 37.4017 27.6343C37.4017 28.5304 36.7355 29.3189 35.0791 29.7669C33.4045 30.2149 31.6221 30.0537 30.4518 29.6772L28.9573 33.3691C30.6138 33.7992 32.5404 33.8888 35.025 33.2257C39.3103 32.0788 42.2271 29.2292 42.2271 25.3046C42.2271 22.0071 39.6704 21.8995 37.9058 21.9175H36.2314C35.0071 21.9533 34.6289 21.5232 34.6289 20.9856C34.6289 20.3224 35.2231 19.6594 36.3034 19.3547C37.4377 19.0501 38.8962 19.0859 40.0125 19.516L42.0471 15.9855C40.7508 15.448 38.9501 15.3583 36.9877 15.7705L39.4904 13.3153Z" fill="#007330"/>
</g>
</g>
<defs>
<clipPath id="clip0_66_4498">
<rect width="141.395" height="160" fill="white"/>
</clipPath>
</defs>
</svg>
