<svg width="23" height="16" viewBox="0 0 23 16" fill="none" xmlns="http://www.w3.org/2000/svg">
<rect x="0.2" y="0.2" width="22" height="15.6" rx="1.4" fill="white" stroke="#F5F5F5" stroke-width="0.4"/>
<mask id="mask0_200_1255" style="mask-type:luminance" maskUnits="userSpaceOnUse" x="0" y="0" width="23" height="16">
<rect x="0.2" y="0.2" width="22" height="15.6" rx="1.4" fill="white" stroke="white" stroke-width="0.4"/>
</mask>
<g mask="url(#mask0_200_1255)">
<path fill-rule="evenodd" clip-rule="evenodd" d="M0 10.6663H22.4V5.33301H0V10.6663Z" fill="#0C47B7"/>
<path fill-rule="evenodd" clip-rule="evenodd" d="M0 16.0003H22.4V10.667H0V16.0003Z" fill="#E53B35"/>
<path d="M10.4405 2.66699C11.3 2.66712 12.0059 3.3462 12.0391 4.20508L12.2462 9.59766C12.2649 10.0859 12.0595 10.556 11.6885 10.874L9.38873 12.8457C8.58982 13.5305 7.4103 13.5305 6.61139 12.8457L4.31158 10.874C3.9406 10.556 3.73519 10.0859 3.75397 9.59766L3.961 4.20508C3.99419 3.34617 4.70007 2.66707 5.55963 2.66699H10.4405Z" fill="#F73744" stroke="white" stroke-width="1.06667"/>
<mask id="mask1_200_1255" style="mask-type:luminance" maskUnits="userSpaceOnUse" x="3" y="2" width="10" height="12">
<path d="M10.4405 2.66699C11.3 2.66712 12.0059 3.3462 12.0391 4.20508L12.2462 9.59766C12.2649 10.0859 12.0595 10.556 11.6885 10.874L9.38873 12.8457C8.58982 13.5305 7.4103 13.5305 6.61139 12.8457L4.31158 10.874C3.9406 10.556 3.73519 10.0859 3.75397 9.59766L3.961 4.20508C3.99419 3.34617 4.70007 2.66707 5.55963 2.66699H10.4405Z" fill="white" stroke="white" stroke-width="1.06667"/>
</mask>
<g mask="url(#mask1_200_1255)">
<path fill-rule="evenodd" clip-rule="evenodd" d="M7.4667 8.79993C7.4667 8.65266 7.34731 8.53327 7.20003 8.53327H6.13337C5.98609 8.53327 5.8667 8.41388 5.8667 8.2666V7.73327C5.8667 7.58599 5.98609 7.4666 6.13337 7.4666H7.20003C7.34731 7.4666 7.4667 7.34721 7.4667 7.19993V6.6666C7.4667 6.51933 7.34731 6.39994 7.20003 6.39994H6.6667C6.51942 6.39994 6.40003 6.28054 6.40003 6.13327V5.59993C6.40003 5.45266 6.51942 5.33327 6.6667 5.33327H7.20003C7.34731 5.33327 7.4667 5.21388 7.4667 5.0666V4.53327C7.4667 4.38599 7.58609 4.2666 7.73337 4.2666H8.2667C8.41398 4.2666 8.53337 4.38599 8.53337 4.53327V5.0666C8.53337 5.21388 8.65276 5.33327 8.80003 5.33327H9.33337C9.48064 5.33327 9.60003 5.45266 9.60003 5.59993V6.13327C9.60003 6.28054 9.48064 6.39994 9.33337 6.39994H8.80003C8.65276 6.39994 8.53337 6.51933 8.53337 6.6666V7.19994C8.53337 7.34721 8.65276 7.4666 8.80003 7.4666H9.8667C10.014 7.4666 10.1334 7.58599 10.1334 7.73327V8.2666C10.1334 8.41388 10.014 8.53327 9.8667 8.53327H8.80003C8.65276 8.53327 8.53337 8.65266 8.53337 8.79994V10.3999C8.53337 10.5472 8.41398 10.6666 8.2667 10.6666H7.73337C7.58609 10.6666 7.4667 10.5472 7.4667 10.3999V8.79993Z" fill="white"/>
<path d="M8.00018 10.1338C8.42414 10.1339 8.7892 10.3819 8.96112 10.7402C10.2588 10.9443 11.2004 11.5514 11.2004 12.2676C11.2001 13.1511 9.76721 13.8671 8.00018 13.8672C6.23307 13.8672 4.8003 13.1511 4.79999 12.2676C4.79999 11.5516 5.74035 10.9445 7.03729 10.7402C7.20912 10.3815 7.5759 10.1338 8.00018 10.1338Z" fill="#1251A1"/>
</g>
</g>
</svg>
