<svg width="131" height="160" viewBox="0 0 131 160" fill="none" xmlns="http://www.w3.org/2000/svg">
<g clip-path="url(#clip0_1_2256)">
<path d="M65.2798 160L104.906 129.76C121.226 116.64 130.56 96.6935 130.56 75.7336V13.5471C106.933 4.16049 87.0398 -0.0528334 65.2798 0.000499777C43.5199 -0.0528334 23.6266 4.16049 3.05176e-05 13.5471V75.6803C3.05176e-05 96.6402 9.33334 116.587 25.6533 129.707L65.2798 160Z" fill="#00006E"/>
<path d="M62.1871 75.0414V23.0416C64.2671 22.9883 66.2938 22.9883 68.3737 23.0416V75.0414H62.1871ZM82.8804 54.6682C82.2404 31.6816 84.107 13.015 84.747 7.575C71.7871 5.975 58.7738 5.975 45.8138 7.575C46.4538 13.0683 48.3205 31.7349 47.6805 54.6682C47.2538 70.7215 45.7072 85.7081 43.0405 99.2547C40.9605 110.028 38.1872 119.895 34.7205 128.748L62.1338 149.655V91.8414H68.3204V149.655L95.7337 128.748C92.3203 119.895 89.4937 110.028 87.4137 99.2547C84.8537 85.7081 83.307 70.7215 82.8804 54.6682Z" fill="#FFC724"/>
<path d="M20.0014 91.8408V29.7077C22.0814 29.1743 24.108 28.641 26.188 28.161V91.8408H20.0014ZM39.6813 8.42773C28.3214 10.2944 17.1214 13.4411 6.13477 17.8144V75.6808C6.13477 94.7741 14.7747 112.854 29.6014 124.801C38.2947 101.387 40.908 74.6142 41.4413 54.5609C42.1346 32.161 40.3213 13.921 39.6813 8.42773Z" fill="#FFC724"/>
<path d="M124.372 56.6409V17.8144C113.438 13.4411 102.185 10.2944 90.825 8.42773C90.185 13.921 88.3717 32.161 89.0117 54.5609C89.545 74.5609 92.2117 101.387 100.852 124.801C115.678 112.854 124.318 94.7741 124.318 75.6808V62.9876H110.505V91.8408H104.318V28.161C106.398 28.641 108.425 29.121 110.505 29.7077V56.6409H124.372Z" fill="#FFC724"/>
</g>
<defs>
<clipPath id="clip0_1_2256">
<rect width="130.56" height="160" fill="white"/>
</clipPath>
</defs>
</svg>
