<svg width="44" height="44" viewBox="0 0 44 44" fill="none" xmlns="http://www.w3.org/2000/svg">
<rect x="0.5" y="0.5" width="43" height="43" rx="21.5" stroke="#FFDD00"/>
<g clip-path="url(#clip0_66_4520)">
<path d="M22 12C16.5 12 12 16.5 12 22C12 27.5 16.5 32 22 32C27.5 32 32 27.5 32 22C32 16.5 27.55 12 22 12ZM25.75 26.65C23.4 25.2 20.45 24.8992 16.9492 25.6992C16.6008 25.8008 16.3 25.55 16.2 25.25C16.1 24.8992 16.35 24.6 16.65 24.5C20.45 23.6492 23.75 24 26.35 25.6C26.7 25.75 26.7491 26.1492 26.6008 26.45C26.4008 26.7492 26.0508 26.85 25.75 26.65ZM26.7491 23.95C24.05 22.3 19.95 21.8 16.8 22.8C16.4008 22.9 15.95 22.7 15.85 22.3C15.75 21.9 15.95 21.4492 16.35 21.3492C20 20.25 24.5 20.8008 27.6 22.7C27.9008 22.8508 28.05 23.35 27.8008 23.7C27.55 24.05 27.1 24.2 26.7491 23.95ZM16.3 19.7508C15.8 19.9 15.3 19.6 15.15 19.15C15 18.6492 15.3 18.15 15.75 17.9992C19.3 16.9492 25.15 17.1492 28.8508 19.35C29.3 19.6 29.45 20.2 29.2 20.65C28.9508 21.0008 28.35 21.1492 27.9008 20.9C24.7 19 19.35 18.8 16.3 19.7508Z" fill="#FAFCFB"/>
</g>
<defs>
<clipPath id="clip0_66_4520">
<rect width="20" height="20" fill="white" transform="translate(12 12)"/>
</clipPath>
</defs>
</svg>
