<svg width="44" height="44" viewBox="0 0 44 44" fill="none" xmlns="http://www.w3.org/2000/svg">
<rect x="0.5" y="0.5" width="43" height="43" rx="21.5" stroke="#FFDD00"/>
<path d="M26 18.2454V25.5C26 29.0899 23.0899 32 19.5 32C15.9102 32 13 29.0899 13 25.5C13 21.9101 15.9102 19 19.5 19C20.0163 19 20.5185 19.0602 21 19.1739V22.3368C20.5454 22.1208 20.0368 22 19.5 22C17.567 22 16 23.567 16 25.5C16 27.433 17.567 29 19.5 29C21.433 29 23 27.433 23 25.5V12H26C26 14.7614 28.2386 17 31 17V20C29.1081 20 27.3696 19.3433 26 18.2454Z" fill="#FAFCFB"/>
</svg>
