<svg width="44" height="44" viewBox="0 0 44 44" fill="none" xmlns="http://www.w3.org/2000/svg">
<rect x="0.5" y="0.5" width="43" height="43" rx="21.5" stroke="#FFDD00"/>
<path d="M22.2439 14C22.778 14.0029 24.1143 14.0159 25.5341 14.0727L26.0375 14.0947C27.467 14.1624 28.8953 14.278 29.6037 14.4755C30.5486 14.741 31.2913 15.5155 31.5423 16.4973C31.942 18.0564 31.992 21.0994 31.9982 21.8358L31.9991 21.9884V21.9991C31.9991 21.9991 31.9991 22.0028 31.9991 22.0099L31.9982 22.1625C31.992 22.8989 31.942 25.9419 31.5423 27.501C31.2878 28.4864 30.5451 29.261 29.6037 29.5228C28.8953 29.7203 27.467 29.8359 26.0375 29.9036L25.5341 29.9255C24.1143 29.9824 22.778 29.9953 22.2439 29.9983L22.0095 29.9991H21.9991C21.9991 29.9991 21.9956 29.9991 21.9887 29.9991L21.7545 29.9983C20.6241 29.9921 15.8977 29.941 14.3945 29.5228C13.4496 29.2573 12.7069 28.4828 12.4559 27.501C12.0562 25.9419 12.0062 22.8989 12 22.1625V21.8358C12.0062 21.0994 12.0562 18.0564 12.4559 16.4973C12.7104 15.5119 13.4531 14.7373 14.3945 14.4755C15.8977 14.0572 20.6241 14.0062 21.7545 14H22.2439ZM19.9991 18.4991V25.4991L25.9991 21.9991L19.9991 18.4991Z" fill="#FAFCFB"/>
</svg>
