<svg width="44" height="44" viewBox="0 0 44 44" fill="none" xmlns="http://www.w3.org/2000/svg"><rect x=".5" y=".5" width="43" height="43" rx="21.5" stroke="#FD0"/><path d="M22.925 13a71.11 71.11 0 011.97.02l.174.006c.202.007.401.016.641.027.958.045 1.611.196 2.185.419a4.385 4.385 0 011.594 1.038c.5.5.809 1.003 1.038 1.595.222.572.374 1.226.419 2.184.01.24.02.44.026.641l.006.175c.013.443.02.957.021 1.97v.67L31 22v.925a70.971 70.971 0 01-.02 1.97l-.007.174c-.007.202-.016.401-.027.641-.044.958-.197 1.611-.419 2.185a4.395 4.395 0 01-1.038 1.594c-.5.5-1.003.809-1.594 1.038-.574.223-1.227.374-2.185.419-.24.01-.44.02-.64.026l-.175.006c-.444.013-.957.02-1.97.021l-.671.001h-1.179a70.687 70.687 0 01-1.97-.02l-.175-.007a57.89 57.89 0 01-.64-.027c-.959-.044-1.611-.197-2.185-.419a4.399 4.399 0 01-1.595-1.038c-.5-.5-.809-1.003-1.038-1.594-.223-.574-.374-1.227-.419-2.185-.01-.24-.019-.439-.026-.64l-.006-.176c-.013-.443-.019-.956-.02-1.97L13 21.075c.002-1.012.007-1.526.02-1.97l.006-.174c.007-.202.016-.4.027-.64.045-.96.196-1.612.419-2.185a4.392 4.392 0 011.038-1.595c.5-.5 1.003-.809 1.595-1.038.573-.223 1.226-.374 2.184-.419.24-.01.44-.019.641-.026l.175-.006c.443-.013.957-.019 1.97-.02l1.85-.001zM22 17.5a4.5 4.5 0 100 9 4.5 4.5 0 000-9zm0 1.8a2.7 2.7 0 110 5.4 2.7 2.7 0 010-5.4zm4.725-3.15a1.126 1.126 0 10.001 2.25 1.126 1.126 0 00-.001-2.25z" fill="#FAFCFB"/></svg>