<svg width="20" height="20" viewBox="0 0 20 20" fill="none" xmlns="http://www.w3.org/2000/svg"><g clip-path="url(#clip0_271_2168)"><path d="M0 10.88h5.478a17.9 17.9 0 002.925 8.882A10.005 10.005 0 010 10.88zm0-2A10.005 10.005 0 018.403 0a17.9 17.9 0 00-2.925 8.88H0zm19.901 0h-5.478A17.9 17.9 0 0011.5 0 10.005 10.005 0 0119.9 8.88zm0 2a10.005 10.005 0 01-8.402 8.882 17.9 17.9 0 002.924-8.881h5.478zm-12.42 0h4.939a15.908 15.908 0 01-2.47 7.592 15.908 15.908 0 01-2.469-7.591zm0-2a15.908 15.908 0 012.47-7.59 15.908 15.908 0 012.469 7.59H7.48z" fill="#6E7B73"/></g><defs><clipPath id="clip0_271_2168"><path fill="#fff" d="M0 0h20v20H0z"/></clipPath></defs></svg>