<svg width="142" height="160" viewBox="0 0 142 160" fill="none" xmlns="http://www.w3.org/2000/svg"><g clip-path="url(#clip0_66_4498)"><mask id="a" style="mask-type:luminance" maskUnits="userSpaceOnUse" x="0" y="0" width="142" height="160"><path d="M141.395 0H0v160h141.395V0z" fill="#fff"/></mask><g mask="url(#a)"><path d="M141.163 17.867c2.052 46.97-8.966 99.211-70.49 142.114C2.576 112.634-1.368 54.605.252 17.867c43.916-23.836 96.995-23.836 140.91 0z" fill="#FFD632"/><path d="M130.81 46.308c-2.088 44.731-24.721 81.309-60.3 105.574-35.578-24.265-58.157-60.86-60.245-105.574 37.577-20.376 82.968-20.376 120.545 0z" fill="#007330"/><path d="M123.716 50.466c-1.873 40.358-21.102 75.663-53.206 97.58-32.103-21.899-51.279-57.24-53.151-97.58 33.796-16.864 73.191-16.864 106.357 0z" fill="#FD0"/><path d="M25.282 48.459v7.276h1.296v-3.334h1.945v-.806h-1.945v-2.33h2.16v-.806h-3.456zM29.711 48.459v5.143c0 .77.054 1.147.234 1.434.324.556.973.806 1.999.806 1.638 0 2.214-.537 2.214-2.096v-5.287H32.88v5.287c0 .932-.18 1.164-.918 1.164s-.973-.25-.973-1.308V48.46h-1.278zM34.84 48.459v.842h1.512v6.434h1.26v-6.434h1.459v-.842H34.84zM39.76 48.459v7.294h1.71c1.531 0 2.27-.645 2.27-1.99 0-1.003-.325-1.397-1.35-1.72.917-.25 1.206-.663 1.206-1.702 0-1.273-.685-1.9-2.071-1.9H39.76v.018zm1.225 3.19v-2.42s.162-.017.252-.017c.72 0 1.098.412 1.098 1.182 0 .914-.324 1.255-1.26 1.255h-.09zm0 .788c1.026 0 1.404.323 1.404 1.219 0 .968-.288 1.219-1.404 1.255v-2.474zM46.368 48.459l-2.089 7.294h1.243l.378-1.416h1.908l.36 1.416h1.279l-2.07-7.294h-1.01zm1.242 5.09h-1.548l.252-.932c.27-1.111.414-1.792.54-2.76.108.735.306 1.864.468 2.527l.288 1.164zM50.183 48.459v7.276h3.421v-.842H51.48v-6.434h-1.297zM56.577 48.37c-1.783 0-2.467.985-2.467 3.566 0 2.903.666 3.906 2.575 3.906 1.746 0 2.448-1.003 2.448-3.566 0-2.921-.648-3.907-2.556-3.907zm.072.877c.378 0 .648.144.828.43.198.34.306 1.219.306 2.706 0 .717-.054 1.362-.144 1.757-.126.555-.45.806-.99.806-.883 0-1.153-.627-1.153-2.706 0-1.416.054-2.025.216-2.401.162-.413.45-.592.937-.592zM59.314 48.459l1.855 7.294h1.026l1.89-7.294H62.88l-.612 2.688c-.036.197-.054.233-.18.878l-.072.377c-.108.483-.036.179-.198.931-.072.359-.054.287-.108.61-.126-.77-.108-.574-.36-1.954l-.072-.34-.036-.161-.036-.162-.036-.161-.576-2.688h-1.279v-.018zM64.428 48.459l1.999 4.157v3.136h1.296v-3.136l1.675-4.157h-1.35l-.54 1.648c-.109.34 0 .054-.27.914-.037.161-.109.413-.18.807-.109-.52-.18-.681-.469-1.434-.054-.125-.108-.233-.144-.34l-.63-1.578h-1.387v-.017zm3.403-2.044l-1.35 1.004.468.394 1.567-.824-.685-.573zM72.548 48.459v7.276h1.297v-3.764l1.8 3.764h1.459l-2.053-3.764 1.89-3.512h-1.296l-1.8 3.512V48.46h-1.297zM77.892 48.459v7.276h3.422v-.842h-2.125v-6.434h-1.296zM82.106 48.459v5.143c0 .77.055 1.147.235 1.434.324.556.99.806 1.998.806 1.639 0 2.215-.537 2.215-2.096v-5.287h-1.279v5.287c0 .932-.18 1.164-.918 1.164s-.972-.25-.972-1.308V48.46h-1.279zM87.992 48.459v7.294h1.71c1.53 0 2.27-.645 2.27-1.99 0-1.003-.325-1.397-1.351-1.72.918-.25 1.206-.663 1.206-1.702 0-1.273-.684-1.9-2.07-1.9h-1.765v.018zm1.224 3.19v-2.42s.162-.017.252-.017c.72 0 1.099.412 1.099 1.182 0 .914-.324 1.255-1.26 1.255h-.09zm0 .788c1.027 0 1.405.323 1.405 1.219 0 .968-.288 1.219-1.405 1.255v-2.474zM96.187 48.459v.824h.954v6.452h1.243v-7.276h-2.197zM102.401 55.735l.036-.054.035-.072.036-.053s.163-.251.343-.538c.396-.627.252-.412.432-.681.846-1.452 1.116-2.258 1.116-3.495 0-1.774-.594-2.473-2.071-2.473-1.476 0-2.052.7-2.052 2.42 0 1.505.522 2.186 1.656 2.186.396 0 .613-.072.991-.287-.469.878-.541.968-1.459 2.366l-.252.376s-.036.072-.144.215l-.054.108h1.387v-.018zm-.073-6.47c.541 0 .811.448.811 1.38 0 1.04-.234 1.452-.811 1.452-.576 0-.828-.413-.828-1.452 0-.932.27-1.38.828-1.38zM107.798 48.37c-.774 0-1.404.322-1.71.895-.324.592-.468 1.416-.468 2.832s.126 2.222.468 2.85c.306.573.936.895 1.71.895.775 0 1.405-.322 1.711-.896.324-.627.468-1.415.468-2.831s-.126-2.223-.468-2.85c-.306-.573-.936-.896-1.711-.896zm-.018.877c.649 0 .865.717.865 2.868 0 2.15-.216 2.867-.865 2.867-.648 0-.882-.717-.882-2.867.018-2.15.234-2.868.882-2.868zM114.207 51.792c.757-.25 1.045-.68 1.045-1.63 0-1.255-.613-1.793-1.999-1.793-1.386 0-1.999.556-1.999 1.792 0 .932.288 1.38 1.063 1.631-.865.233-1.135.663-1.135 1.828 0 1.523.649 2.204 2.071 2.204 1.422 0 2.071-.68 2.071-2.204 0-1.165-.27-1.595-1.117-1.828zm-.954-2.58c.45 0 .702.358.702 1.02 0 .718-.252 1.13-.702 1.13-.45 0-.702-.412-.702-1.13-.018-.644.252-1.02.702-1.02zm0 3.118c.558 0 .792.412.792 1.433 0 .825-.252 1.219-.792 1.219s-.792-.394-.792-1.219c-.018-1.039.216-1.433.792-1.433zM25.156 57.204s-.306 54.014 45.374 91.577c45.679-37.563 45.067-91.577 45.067-91.577h-90.44z" fill="#007330"/><path d="M44.476 67.186l1.549 4.194 4.555-.806-3.007 3.405 3.007 3.387-4.555-.843-1.549 4.23-1.548-4.23-4.574.843 3.025-3.387-3.025-3.405 4.574.806 1.548-4.194zM97.105 67.186l1.548 4.194 4.556-.806-3.007 3.405 3.007 3.387-4.556-.843-1.548 4.23-1.549-4.23-4.573.843 3.025-3.387-3.025-3.405 4.573.806 1.549-4.194zM73.862 118.19V97.169H84.07c6.716 0 10.785 1.756 10.785 1.756-.918-5.251 0-10.126 0-10.126-4.321 1.828-10.875 1.99-10.875 1.99H73.86V74.212c4.808-.234 7.977 1.11 7.977 1.11-.666-4.462 0-8.602 0-8.602-4.393 1.362-8.048 1.112-8.048 1.112.252-2.545.252-6.38.252-6.38-1.909.233-3.565.16-3.565.16s-1.657.073-3.565-.16c0 0 0 3.817.252 6.38 0 0-3.655.233-8.049-1.111 0 0 .667 4.14 0 8.602 0 0 3.151-1.362 7.977-1.111v16.577h-10.12s-6.553-.162-10.874-1.99c0 0 .918 4.857 0 10.126 0 0 4.069-1.756 10.785-1.756h10.209v21.039s.45 5.681-2.125 7.204c-2.575 1.506-3.259 1.452-4.249 2.419-.99.95-.666 2.743 0 3.532.666.787 1.656 1.989 1.584 3.351 0 0 1.243-1.309-.324-3.262-1.332-1.667 1.657-3.961 3.061-2.026 1.009 1.399.18 3.46.18 3.46s-1.404 2.383.99 4.301c2.413 1.917 2.161 1.362 2.737 2.545 0 0 .397-.807-1.08-2.24-1.548-1.488-1.044-3.998-.126-5.018.918-1.041 1.98-1.166 3.115-.466 1.206.734.738 2.078.576 2.956-.162.879-.162 1.667.162 2.545.324.878.99 1.99.828 3.352 0 0 1.35-.771.576-2.545-.774-1.774-.504-2.545 0-3.262.505-.717 1.333-1.506 1.17-3.101-.161-1.595 1.081-2.795 2.251-2.706 1.17.072 2.413 1.273 2.161 2.706-.324 1.38-1.404 1.864-1.404 2.903 0 1.04-.378 2.241-.81 2.473 0 0 .882-.393 1.8-2.079.864-1.594 1.873-1.952 1.873-1.952s1.314-1.345 1.116-3.227c-.144-1.343-1.657-2.545-1.657-2.545s-3.565-1.272-4.573-2.956c-.972-1.667-1.062-6.38-1.062-6.38z" fill="#FD0"/><path d="M28.165 34.767l-1.512-15.735-5.006 2.222-1.674 7.008c-.36 1.451-.486 2.311-.63 3.62h-.018c-.145-1.237-.307-2.026-.54-2.85l-1.603-5.788-5.186 2.294-1.62 17.114 4.25-1.882.323-6.684c.054-1.057.072-1.953.072-3.423h.018c.126 1.38.306 2.222.54 3.029l1.747 5.86 3.6-1.595 2.018-7.706c.252-.986.378-1.864.558-3.334h.018c0 1.398.054 2.223.126 3.226l.396 6.434 4.123-1.81zm102.954 7.921l-4.987-18.602-4.394-1.953-5.293 14.05 4.447 1.971.9-2.76 3.908 1.72.828 3.549 4.591 2.025zm-6.302-9.158l-2.124-.95.666-2.383c.288-.986.396-1.828.45-2.42.018.628.144 1.631.306 2.438l.702 3.315zm-9.614 2.187V19.319l-4.016-1.2v5.089c0 1.075.018 2.706.144 3.71a32.983 32.983 0 00-1.368-3.531l-3.007-6.505-4.069-1.201v16.398l4.015 1.2v-4.605c0-2.025-.144-3.567-.234-4.23.36 1.165.846 2.491 1.278 3.46l2.899 6.558 4.358 1.255zm-14.621-4.265V15.053l-4.321-.843V30.61l4.321.842zm-6.176-4.875l-5.6-.824V12.83l-4.284-.537v16.398l9.902 1.433v-3.548h-.018zm-11.865 1.917V12.098l-4.321-.144v16.398l4.32.143zm-6.428-3.87H69.65l6.374-9.714v-3.172H71.72l2.52-1.81-1.062-1.792-2.575 1.326-2.664-1.344-.973 1.774 2.63 1.846H65.04v3.405H71l-6.464 9.767v3.208h11.56v-3.494h.017zm-18.383 3.87l-5.15-8.046 4.321-8.208-5.239.86-3.637 8.172 4.141 8.137 5.564-.915zm-9.76 1.613V13.692l-4.23.699v16.397l4.23-.698v.017zm-8.48-16.792l-1.062-1.505-2.575 2.025-2.665-.627-.972 2.043 2.683 1.147c-3.025 1.254-5.113 3.817-5.113 6.684 0 2.868 1.638 3.71 4.015 3.674h1.944c1.135-.036 1.657.143 1.657.878 0 .896-.666 1.685-2.323 2.133-1.675.448-3.457.287-4.627-.09l-1.495 3.692c1.657.43 3.583.52 6.068-.143 4.285-1.147 7.202-3.997 7.202-7.921 0-3.298-2.557-3.405-4.321-3.387H36.23c-1.224.035-1.602-.395-1.602-.932 0-.664.594-1.327 1.674-1.631 1.135-.305 2.593-.27 3.71.161l2.034-3.53c-1.296-.538-3.097-.628-5.06-.216l2.503-2.455z" fill="#007330"/></g></g><defs><clipPath id="clip0_66_4498"><path fill="#fff" d="M0 0h141.4v160H0z"/></clipPath></defs></svg>