<svg width="23" height="16" viewBox="0 0 23 16" fill="none" xmlns="http://www.w3.org/2000/svg"><rect x=".2" y=".2" width="22" height="15.6" rx="1.4" fill="#fff" stroke="#F5F5F5" stroke-width=".4"/><mask id="a" style="mask-type:luminance" maskUnits="userSpaceOnUse" x="0" y="0" width="23" height="16"><rect x=".2" y=".2" width="22" height="15.6" rx="1.4" fill="#fff" stroke="#fff" stroke-width=".4"/></mask><g mask="url(#a)"><path fill-rule="evenodd" clip-rule="evenodd" d="M0 10.666h22.4V5.333H0v5.333z" fill="#0C47B7"/><path fill-rule="evenodd" clip-rule="evenodd" d="M0 16h22.4v-5.333H0V16z" fill="#E53B35"/><path d="M10.44 2.667a1.6 1.6 0 011.6 1.538l.206 5.393a1.6 1.6 0 01-.558 1.276l-2.3 1.972a2.134 2.134 0 01-2.777 0l-2.3-1.972a1.6 1.6 0 01-.557-1.276l.207-5.393A1.6 1.6 0 015.56 2.667h4.88z" fill="#F73744" stroke="#fff" stroke-width="1.07"/><mask id="b" style="mask-type:luminance" maskUnits="userSpaceOnUse" x="3" y="2" width="10" height="12"><path d="M10.44 2.667a1.6 1.6 0 011.6 1.538l.206 5.393a1.6 1.6 0 01-.558 1.276l-2.3 1.972a2.134 2.134 0 01-2.777 0l-2.3-1.972a1.6 1.6 0 01-.557-1.276l.207-5.393A1.6 1.6 0 015.56 2.667h4.88z" fill="#fff" stroke="#fff" stroke-width="1.07"/></mask><g mask="url(#b)"><path fill-rule="evenodd" clip-rule="evenodd" d="M7.467 8.8a.267.267 0 00-.267-.267H6.133a.267.267 0 01-.266-.266v-.534c0-.147.12-.266.266-.266H7.2c.147 0 .267-.12.267-.267v-.533A.267.267 0 007.2 6.4h-.533a.267.267 0 01-.267-.267V5.6c0-.147.12-.267.267-.267H7.2c.147 0 .267-.12.267-.266v-.534c0-.147.12-.266.266-.266h.534c.147 0 .266.119.266.266v.534c0 .147.12.266.267.266h.533c.148 0 .267.12.267.267v.533c0 .148-.12.267-.267.267H8.8a.267.267 0 00-.267.267V7.2c0 .147.12.267.267.267h1.067c.147 0 .266.119.266.266v.534c0 .147-.119.266-.266.266H8.8a.267.267 0 00-.267.267v1.6c0 .147-.119.267-.266.267h-.534a.267.267 0 01-.266-.267V8.8z" fill="#fff"/><path d="M8 10.134c.424 0 .79.248.961.606 1.298.204 2.24.811 2.24 1.528 0 .883-1.434 1.6-3.2 1.6-1.768 0-3.2-.717-3.201-1.6 0-.716.94-1.324 2.237-1.528.172-.358.539-.606.963-.606z" fill="#1251A1"/></g></g></svg>