<svg width="131" height="160" viewBox="0 0 131 160" fill="none" xmlns="http://www.w3.org/2000/svg"><g clip-path="url(#clip0_1_2256)"><path d="M65.28 160l39.626-30.24c16.32-13.12 25.654-33.066 25.654-54.026V13.547C106.933 4.16 87.04-.053 65.28 0 43.52-.053 23.627 4.16 0 13.547V75.68c0 20.96 9.333 40.907 25.653 54.027L65.28 160z" fill="#00006E"/><path d="M62.187 75.041v-52c2.08-.053 4.107-.053 6.187 0v52h-6.187zM82.88 54.668c-.64-22.986 1.227-41.653 1.867-47.093-12.96-1.6-25.973-1.6-38.933 0 .64 5.493 2.507 24.16 1.867 47.093-.427 16.054-1.974 31.04-4.64 44.587-2.08 10.773-4.854 20.64-8.32 29.493l27.413 20.907V91.841h6.186v57.814l27.414-20.907c-3.414-8.853-6.24-18.72-8.32-29.493-2.56-13.547-4.107-28.533-4.534-44.587z" fill="#FFC724"/><path d="M20.001 91.84V29.709c2.08-.534 4.107-1.067 6.187-1.547v63.68h-6.187zm19.68-83.412c-11.36 1.866-22.56 5.013-33.546 9.386v57.867c0 19.093 8.64 37.173 23.466 49.12 8.694-23.414 11.307-50.187 11.84-70.24.694-22.4-1.12-40.64-1.76-46.133zM124.372 56.64V17.815c-10.934-4.373-22.187-7.52-33.547-9.386-.64 5.493-2.453 23.733-1.813 46.133.533 20 3.2 46.826 11.84 70.24 14.826-11.947 23.466-30.027 23.466-49.12V62.988h-13.813V91.84h-6.187V28.16c2.08.48 4.107.96 6.187 1.547V56.64h13.867z" fill="#FFC724"/></g><defs><clipPath id="clip0_1_2256"><path fill="#fff" d="M0 0h130.56v160H0z"/></clipPath></defs></svg>