<svg width="44" height="44" viewBox="0 0 44 44" fill="none" xmlns="http://www.w3.org/2000/svg"><rect x=".5" y=".5" width="43" height="43" rx="21.5" stroke="#FD0"/><path d="M22.244 14c.534.003 1.87.016 3.29.073l.504.022c1.429.067 2.857.183 3.566.38.945.266 1.687 1.04 1.938 2.022.4 1.56.45 4.602.456 5.339l.001.152v.175c-.007.736-.057 3.779-.457 5.338-.254.985-.997 1.76-1.938 2.022-.709.197-2.137.313-3.566.38l-.504.023c-1.42.056-2.756.07-3.29.072l-.235.001H22h-.245c-1.13-.007-5.856-.058-7.36-.476-.944-.266-1.687-1.04-1.938-2.022-.4-1.56-.45-4.602-.456-5.338v-.327c.006-.737.056-3.78.456-5.339.254-.985.997-1.76 1.939-2.021 1.503-.419 6.23-.47 7.36-.476h.489zm-2.245 4.5v7l6-3.5-6-3.5z" fill="#FAFCFB"/></svg>